<?xml version="1.0" standalone="no"?>
<!DOCTYPE svg PUBLIC "-//W3C//DTD SVG 20010904//EN"
 "http://www.w3.org/TR/2001/REC-SVG-20010904/DTD/svg10.dtd">
<svg version="1.0" xmlns="http://www.w3.org/2000/svg"
 width="929.000000pt" height="1280.000000pt" viewBox="0 0 929.000000 1280.000000"
 preserveAspectRatio="xMidYMid meet">
<metadata>
Created by potrace 1.15, written by Peter Selinger 2001-2017
</metadata>
<g transform="translate(0.000000,1280.000000) scale(0.100000,-0.100000)"
fill="#000000" stroke="none">
<path d="M2135 12790 c-145 -23 -336 -101 -445 -182 -81 -61 -194 -173 -255
-253 -141 -186 -205 -383 -205 -635 0 -316 103 -556 333 -777 139 -134 284
-218 457 -265 76 -21 106 -23 295 -23 l210 0 94 33 c333 116 554 315 684 615
66 153 87 324 68 539 -13 147 -31 219 -87 337 -56 118 -117 205 -219 306 -142
142 -336 252 -517 291 -86 19 -327 27 -413 14z"/>
<path d="M1961 10389 c-156 -19 -293 -69 -415 -151 -49 -33 -59 -51 -798
-1396 l-748 -1364 24 -151 c24 -145 45 -271 121 -742 19 -115 77 -480 130
-810 l96 -600 35 -52 c187 -275 532 -294 785 -43 52 52 86 96 108 142 32 65
33 71 28 155 -3 49 -52 387 -110 753 -136 854 -151 962 -142 1006 3 20 102
226 219 458 233 462 336 656 350 656 9 0 7 -326 -14 -2068 l-9 -783 -95 -297
c-52 -163 -172 -540 -266 -837 -94 -297 -247 -778 -340 -1070 -93 -291 -228
-717 -300 -945 -73 -228 -184 -577 -247 -775 l-115 -360 4 -190 c4 -167 7
-196 25 -237 68 -151 230 -300 406 -375 86 -37 461 -172 727 -263 l155 -53 95
7 c196 13 287 52 407 173 53 53 83 94 114 157 40 82 42 89 47 203 5 137 -5
196 -49 287 -65 132 -176 239 -319 303 -36 16 -71 36 -77 45 -11 12 -1 52 56
219 113 337 398 1141 1018 2879 l416 1164 -6 1151 c-4 632 -10 1187 -15 1231
-10 96 42 24 -462 629 -380 455 -410 493 -410 527 0 30 28 58 58 58 40 0 114
-84 1347 -1540 659 -778 1320 -1551 1448 -1692 54 -59 117 -119 141 -133 207
-122 451 -89 627 84 112 110 156 232 146 400 -4 74 -10 95 -46 165 -68 133
-488 653 -2236 2775 -871 1057 -942 1139 -1012 1181 -74 44 -189 84 -309 106
-104 19 -476 28 -593 13z"/>
<path d="M6166 5609 c-8 -12 -36 -37 -62 -55 -27 -19 -51 -40 -56 -47 -4 -6 4
-31 19 -57 89 -154 1194 -1905 2238 -3545 685 -1077 868 -1361 898 -1392 27
-30 51 -29 72 4 17 25 17 28 -2 67 -84 171 -2751 4561 -3034 4993 -37 58 -50
64 -73 32z"/>
<path d="M3304 4994 c-71 -170 -577 -1596 -591 -1666 -3 -16 9 -72 32 -145 71
-226 592 -1712 798 -2278 118 -323 136 -357 240 -457 68 -65 181 -128 277
-154 92 -25 263 -25 355 0 177 47 693 280 832 374 114 77 205 204 232 322 15
66 13 227 -4 293 -42 163 -175 320 -335 396 -53 25 -62 26 -244 27 l-190 1
-38 78 c-54 106 -164 372 -555 1340 -686 1700 -771 1905 -788 1905 -3 0 -13
-16 -21 -36z"/>
</g>
</svg>
